<svg width="19" height="19" viewBox="0 0 19 19" fill="none" xmlns="http://www.w3.org/2000/svg">
<path d="M7.01538 6.53125C7.63558 6.53125 8.23038 6.28103 8.66893 5.83563C9.10747 5.39023 9.35385 4.78614 9.35385 4.15625C9.35385 3.52636 9.10747 2.92227 8.66893 2.47687C8.23038 2.03147 7.63558 1.78125 7.01538 1.78125C6.39519 1.78125 5.80039 2.03147 5.36184 2.47687C4.9233 2.92227 4.67692 3.52636 4.67692 4.15625C4.67692 4.78614 4.9233 5.39023 5.36184 5.83563C5.80039 6.28103 6.39519 6.53125 7.01538 6.53125ZM7.01538 5.34375C6.70529 5.34375 6.40789 5.21864 6.18861 4.99594C5.96934 4.77324 5.84615 4.47119 5.84615 4.15625C5.84615 3.84131 5.96934 3.53926 6.18861 3.31656C6.40789 3.09386 6.70529 2.96875 7.01538 2.96875C7.32548 2.96875 7.62288 3.09386 7.84216 3.31656C8.06143 3.53926 8.18462 3.84131 8.18462 4.15625C8.18462 4.47119 8.06143 4.77324 7.84216 4.99594C7.62288 5.21864 7.32548 5.34375 7.01538 5.34375ZM4.09231 7.125C3.62716 7.125 3.18106 7.31267 2.85215 7.64672C2.52324 7.98076 2.33846 8.43383 2.33846 8.90625C2.33846 9.29575 2.38523 10.1508 3.06806 10.9001C3.75323 11.6517 4.96339 12.1719 7.01305 12.1719L7.18258 12.1707C7.27846 11.7527 7.41214 11.3521 7.58363 10.9689C7.39361 10.9793 7.20334 10.9845 7.01305 10.9844C5.1376 10.9844 4.30394 10.5082 3.92628 10.0938C3.54511 9.67575 3.50769 9.196 3.50769 8.90625C3.50769 8.74878 3.56929 8.59775 3.67892 8.4864C3.78856 8.37506 3.93726 8.3125 4.09231 8.3125H9.74788C10.1684 8.01179 10.623 7.76341 11.1018 7.57269C10.7809 7.28409 10.3671 7.12483 9.93846 7.125H4.09231ZM3.50769 13.0625H7.04111C7.00624 13.4575 7.00624 13.855 7.04111 14.25H3.50769C2.57739 14.25 1.6852 13.8747 1.02738 13.2066C0.369559 12.5385 0 11.6323 0 10.6875V3.5625C0 2.61767 0.369559 1.71153 1.02738 1.04343C1.6852 0.375334 2.57739 0 3.50769 0H10.5231C11.4534 0 12.3456 0.375334 13.0034 1.04343C13.6612 1.71153 14.0308 2.61767 14.0308 3.5625V7.15113C13.6418 7.11571 13.2505 7.11571 12.8615 7.15113V3.5625C12.8615 2.93261 12.6152 2.32852 12.1766 1.88312C11.7381 1.43772 11.1433 1.1875 10.5231 1.1875H3.50769C2.88749 1.1875 2.2927 1.43772 1.85415 1.88312C1.4156 2.32852 1.16923 2.93261 1.16923 3.5625V10.6875C1.16923 11.3174 1.4156 11.9215 1.85415 12.3669C2.2927 12.8123 2.88749 13.0625 3.50769 13.0625ZM3.23175 15.4375H7.25742C7.37356 15.8523 7.52673 16.2482 7.71692 16.625H5.84615C5.35265 16.625 4.86469 16.5192 4.41419 16.3146C3.96368 16.11 3.56076 15.8111 3.23175 15.4375ZM16.3692 5.9375V7.8375C15.9954 7.64355 15.6038 7.48725 15.2 7.37081V3.28225C15.9179 3.93537 16.3692 4.883 16.3692 5.9375ZM18.7077 13.6562C18.7077 15.0735 18.1534 16.4327 17.1666 17.4349C16.1799 18.437 14.8416 19 13.4462 19C12.0507 19 10.7124 18.437 9.72569 17.4349C8.73896 16.4327 8.18462 15.0735 8.18462 13.6562C8.18462 12.239 8.73896 10.8798 9.72569 9.87765C10.7124 8.8755 12.0507 8.3125 13.4462 8.3125C14.8416 8.3125 16.1799 8.8755 17.1666 9.87765C18.1534 10.8798 18.7077 12.239 18.7077 13.6562ZM14.0308 11.2812C14.0308 11.1238 13.9692 10.9728 13.8595 10.8614C13.7499 10.7501 13.6012 10.6875 13.4462 10.6875C13.2911 10.6875 13.1424 10.7501 13.0328 10.8614C12.9231 10.9728 12.8615 11.1238 12.8615 11.2812V13.0625H11.1077C10.9526 13.0625 10.8039 13.1251 10.6943 13.2364C10.5847 13.3478 10.5231 13.4988 10.5231 13.6562C10.5231 13.8137 10.5847 13.9647 10.6943 14.0761C10.8039 14.1874 10.9526 14.25 11.1077 14.25H12.8615V16.0312C12.8615 16.1887 12.9231 16.3397 13.0328 16.4511C13.1424 16.5624 13.2911 16.625 13.4462 16.625C13.6012 16.625 13.7499 16.5624 13.8595 16.4511C13.9692 16.3397 14.0308 16.1887 14.0308 16.0312V14.25H15.7846C15.9397 14.25 16.0884 14.1874 16.198 14.0761C16.3076 13.9647 16.3692 13.8137 16.3692 13.6562C16.3692 13.4988 16.3076 13.3478 16.198 13.2364C16.0884 13.1251 15.9397 13.0625 15.7846 13.0625H14.0308V11.2812Z" fill="#003566"/>
</svg>
