<svg width="24" height="23" viewBox="0 0 24 23" fill="none" xmlns="http://www.w3.org/2000/svg">
<path fill-rule="evenodd" clip-rule="evenodd" d="M14.1429 10.9568C14.7347 10.9568 15.2143 10.4705 15.2143 9.87065V7.69842C15.2143 7.09858 14.7347 6.61232 14.1429 6.61232H13.0714V4.44009C13.0714 3.84025 12.5918 3.35398 12 3.35398H9.85714C9.26541 3.35398 8.78571 3.84025 8.78571 4.44009V9.87065C8.78571 10.4705 9.26541 10.9568 9.85714 10.9568H14.1429ZM9.85717 4.44009H12V5.5262H9.85714L9.85717 4.44009ZM14.1429 7.69842H13.0714V8.78454L12 8.78453V9.87064L14.1429 9.87065V7.69842ZM9.85714 9.87064V8.78453H10.9286V9.87064H9.85714ZM12 6.61232H9.85717L9.85714 7.69842H12V6.61232Z"  fill="#2F5B84"/>
<path d="M3.68122 17.4186L5.23814 19.2719C5.65679 19.7702 6.41243 19.7702 6.83108 19.2719L9.18156 16.4739C10.8873 16.822 12.1491 16.7173 13.5445 16.6015C14.1155 16.5541 14.7091 16.5049 15.3645 16.4842C15.7784 16.471 16.184 16.3489 16.5287 16.1144L20.3414 13.5211C20.5581 13.3737 20.6334 13.0846 20.5168 12.8468C20.3591 12.525 19.9376 12.4562 19.6621 12.6806C19.5764 12.7503 19.4911 12.8161 19.406 12.8784C19.3979 12.8032 19.3737 12.7289 19.3327 12.6607C19.1481 12.3542 18.7223 12.3231 18.467 12.5711C18.4211 12.6156 18.3753 12.6589 18.3295 12.7008C18.1418 12.8725 17.9537 13.0239 17.7667 13.1606C17.3659 13.4537 16.9703 13.6794 16.5958 13.8929C16.1422 14.1516 15.7194 14.3926 15.3561 14.7145C14.8436 14.6297 14.2578 14.5996 13.6934 14.5706C12.4336 14.5058 11.2796 14.4463 11.2796 13.7982H14.9511C15.2408 14.0481 15.4757 13.8086 15.4757 13.5131C15.4757 13.2175 15.2381 12.9787 14.9485 12.972C13.3303 12.9346 12.3991 12.7284 11.6068 12.5528C10.7989 12.3739 10.1355 12.2269 9.03545 12.3235C8.45767 12.3742 7.95005 12.722 7.62836 13.2143L7.33414 13.6646C7.16896 13.9174 6.95295 14.1314 6.70045 14.2924L3.92742 15.8145C3.37745 16.1615 3.26353 16.9214 3.68122 17.4186Z" fill="#2F5B84"/>
</svg>
