<svg width="29" height="29" viewBox="0 0 29 29" fill="none" xmlns="http://www.w3.org/2000/svg">
<path d="M17.0673 0.295898C15.5263 0.295898 14.0199 0.752546 12.7386 1.6081C11.4573 2.46364 10.4587 3.67967 9.86896 5.1024C9.27925 6.52512 9.12496 8.09065 9.4256 9.60101C9.72623 11.1114 10.4683 12.4987 11.5579 13.5876C12.6476 14.6765 14.0359 15.4181 15.5473 15.7185C17.0586 16.019 18.6252 15.8648 20.0489 15.2754C21.4726 14.6861 22.6895 13.6882 23.5456 12.4077C24.4017 11.1273 24.8587 9.62196 24.8587 8.08201C24.8564 6.01771 24.0348 4.03861 22.5741 2.57892C21.1134 1.11924 19.133 0.298185 17.0673 0.295898V0.295898ZM17.8853 11.6219V11.7926C17.8853 12.0092 17.7992 12.217 17.6459 12.3702C17.4926 12.5234 17.2846 12.6095 17.0678 12.6095C16.851 12.6095 16.6431 12.5234 16.4898 12.3702C16.3365 12.217 16.2503 12.0092 16.2503 11.7926V11.7137C15.8345 11.6344 15.4406 11.4669 15.0951 11.2224C15.0053 11.1637 14.9279 11.0878 14.8674 10.9993C14.8069 10.9107 14.7644 10.811 14.7425 10.706C14.7205 10.601 14.7194 10.4927 14.7393 10.3873C14.7592 10.2819 14.7997 10.1815 14.8585 10.0917C14.9172 10.0019 14.9931 9.92462 15.0817 9.86416C15.1704 9.80369 15.2701 9.76126 15.3752 9.7393C15.4802 9.71734 15.5886 9.71627 15.6941 9.73616C15.7995 9.75605 15.9001 9.79651 15.9899 9.85522C16.2965 10.0855 16.682 10.1849 17.0619 10.1317C17.2489 10.1338 17.4305 10.0683 17.5731 9.94726C17.7156 9.82621 17.8096 9.65776 17.8378 9.47293C17.8537 9.4035 17.8558 9.3316 17.8438 9.26138C17.8318 9.19115 17.806 9.12399 17.768 9.06376C17.7299 9.00353 17.6803 8.95142 17.622 8.91045C17.5637 8.86947 17.4978 8.84042 17.4282 8.82499C16.7635 8.62161 16.1338 8.31789 15.5609 7.92435C15.3048 7.68542 15.1141 7.38499 15.0071 7.05163C14.9 6.71828 14.8801 6.36309 14.9492 6.01986C15.0183 5.67663 15.1741 5.35678 15.4019 5.09074C15.6296 4.82471 15.9217 4.62133 16.2503 4.49997V4.3801C16.2503 4.16343 16.3365 3.95564 16.4898 3.80243C16.6431 3.64922 16.851 3.56315 17.0678 3.56315C17.2846 3.56315 17.4926 3.64922 17.6459 3.80243C17.7992 3.95564 17.8853 4.16343 17.8853 4.3801V4.44705C18.2221 4.55013 18.535 4.71898 18.806 4.94381C18.9657 5.09031 19.0605 5.29418 19.0698 5.51057C19.079 5.72697 19.0018 5.93816 18.8552 6.09769C18.7086 6.25722 18.5046 6.35202 18.288 6.36123C18.0715 6.37045 17.8602 6.29332 17.7005 6.14682C17.5747 6.06055 17.4305 6.00463 17.2794 5.98346C17.1283 5.96228 16.9743 5.97643 16.8295 6.0248C16.7533 6.05328 16.6862 6.10167 16.6351 6.16492C16.5839 6.22817 16.5507 6.30396 16.5389 6.3844C16.5269 6.4263 16.5235 6.47017 16.5289 6.5134C16.5342 6.55664 16.5483 6.59834 16.5702 6.63602C17.0076 6.91345 17.48 7.13135 17.975 7.28397C18.4239 7.44861 18.8102 7.74921 19.08 8.1438C19.3497 8.5384 19.4895 9.0073 19.4797 9.48509C19.47 9.96287 19.3112 10.4257 19.0256 10.809C18.7399 11.1922 18.3417 11.4768 17.8864 11.623L17.8853 11.6219Z" fill="#2F5B84"/>
<path d="M24.5635 16.2019L16.6273 18.541C16.8831 19.1681 17.0141 19.8389 17.0131 20.5161V20.8034C17.0119 21.2711 16.8938 21.7311 16.6696 22.1416C16.4453 22.5521 16.122 22.9001 15.729 23.1541C15.3359 23.408 14.8857 23.5598 14.419 23.5957C13.9524 23.6315 13.4842 23.5504 13.0569 23.3595L8.89644 21.4891C8.69882 21.4002 8.54466 21.2364 8.46785 21.0339C8.39104 20.8314 8.39788 20.6067 8.48687 20.4092C8.57586 20.2117 8.73971 20.0577 8.94237 19.9809C9.14503 19.9042 9.3699 19.911 9.56751 19.9999L13.728 21.8703C13.9061 21.9506 14.1016 21.9851 14.2964 21.9704C14.4913 21.9558 14.6794 21.8926 14.8436 21.7866C15.0077 21.6806 15.1426 21.5351 15.236 21.3635C15.3294 21.192 15.3782 20.9998 15.3781 20.8044V20.5172C15.3733 19.8363 15.1717 19.1713 14.7977 18.6021C14.4237 18.0329 13.8931 17.5838 13.2698 17.3088L9.67558 15.6889C8.98506 15.3783 8.23592 15.2194 7.47869 15.2227C6.72146 15.2261 5.97375 15.3917 5.28602 15.7084L1.41842 17.4611C1.27569 17.526 1.15466 17.6305 1.06977 17.7622C0.984886 17.894 0.939731 18.0474 0.939697 18.204V26.8951C0.936419 27.0292 0.966199 27.162 1.02641 27.2819C1.08663 27.4017 1.17543 27.505 1.28498 27.5824C1.39453 27.6599 1.52147 27.7092 1.65461 27.7261C1.78775 27.743 1.923 27.7268 2.04843 27.6791L7.49053 25.6079L13.9635 27.8757C14.6901 28.131 15.4639 28.224 16.2304 28.148C16.9968 28.0721 17.7373 27.8291 18.3996 27.4362L27.2046 22.2526C27.8973 21.8363 28.4148 21.1824 28.6606 20.4129C28.9064 19.6434 28.8636 18.8108 28.5403 18.0704C28.217 17.3301 27.6352 16.7326 26.9034 16.3894C26.1717 16.0461 25.34 15.9806 24.5635 16.2051V16.2019Z" fill="#2F5B84"/>
</svg>
