<svg width="21" height="20" viewBox="0 0 21 20" fill="none" xmlns="http://www.w3.org/2000/svg">
<path d="M5 2C4.60218 2 4.22064 2.15804 3.93934 2.43934C3.65804 2.72064 3.5 3.10218 3.5 3.5V16.5C3.5 16.8978 3.65804 17.2794 3.93934 17.5607C4.22064 17.842 4.60218 18 5 18H12C12.3978 18 12.7794 17.842 13.0607 17.5607C13.342 17.2794 13.5 16.8978 13.5 16.5V15C13.5 14.8674 13.4473 14.7402 13.3536 14.6464C13.2598 14.5527 13.1326 14.5 13 14.5C12.587 14.5 12.323 14.398 12.144 14.264C11.962 14.128 11.8207 13.9203 11.72 13.641C11.506 13.053 11.5 12.274 11.5 11.5C11.5 11.4342 11.487 11.3691 11.4618 11.3084C11.4365 11.2476 11.3996 11.1924 11.353 11.146L11.067 10.859L9.854 9.646C9.387 9.179 9.25 8.866 9.224 8.691C9.204 8.551 9.246 8.457 9.346 8.361C9.56 8.156 9.713 8.017 9.886 7.975C9.989 7.949 10.224 7.931 10.646 8.353L13.646 11.353C13.7398 11.4469 13.867 11.4997 13.9996 11.4998C14.0653 11.4998 14.1304 11.4869 14.1911 11.4618C14.2518 11.4367 14.307 11.3999 14.3535 11.3535C14.4 11.3071 14.4369 11.252 14.4621 11.1913C14.4872 11.1306 14.5002 11.0656 14.5003 10.9999C14.5003 10.9342 14.4874 10.8691 14.4623 10.8084C14.4372 10.7477 14.4004 10.6925 14.354 10.646L13.5 9.793V6.707L16.06 9.267C16.1994 9.40627 16.3101 9.57166 16.3856 9.75372C16.4611 9.93577 16.5 10.1309 16.5 10.328V17.5C16.5 17.6326 16.5527 17.7598 16.6464 17.8536C16.7402 17.9473 16.8674 18 17 18C17.1326 18 17.2598 17.9473 17.3536 17.8536C17.4473 17.7598 17.5 17.6326 17.5 17.5V10.328C17.4999 9.66526 17.2366 9.02969 16.768 8.561L13.5 5.293V3.5C13.5 3.10218 13.342 2.72064 13.0607 2.43934C12.7794 2.15804 12.3978 2 12 2H5ZM12.5 5.5V8.793L11.354 7.646C10.776 7.068 10.2 6.869 9.649 7.003C9.54072 7.02958 9.43574 7.06815 9.336 7.118C8.88898 6.98829 8.41792 6.96438 7.96006 7.04815C7.50221 7.13192 7.07013 7.32108 6.698 7.60067C6.32587 7.88025 6.0239 8.24259 5.81597 8.65902C5.60805 9.07545 5.49987 9.53455 5.5 10C5.49996 10.5799 5.66802 11.1475 5.98383 11.6339C6.29964 12.1203 6.74967 12.5047 7.27945 12.7407C7.80923 12.9766 8.39604 13.054 8.96886 12.9633C9.54168 12.8727 10.0759 12.618 10.507 12.23C10.524 12.808 10.582 13.44 10.78 13.983C10.928 14.39 11.164 14.779 11.544 15.063L11.55 15.069C11.2455 15.1648 10.9795 15.3552 10.7906 15.6125C10.6018 15.8699 10.5 16.1808 10.5 16.5V17H6.5V16.5C6.5 16.1022 6.34196 15.7206 6.06066 15.4393C5.77936 15.158 5.39782 15 5 15H4.5V5H5C5.39782 5 5.77936 4.84196 6.06066 4.56066C6.34196 4.27936 6.5 3.89782 6.5 3.5V3H10.5V3.5C10.5 3.89782 10.658 4.27936 10.9393 4.56066C11.2206 4.84196 11.6022 5 12 5H12.5V5.5ZM12.5 16.5V16.509C12.4976 16.64 12.4439 16.7649 12.3504 16.8568C12.2569 16.9486 12.1311 17 12 17H11.5V16.5C11.5 16.3674 11.5527 16.2402 11.6464 16.1464C11.7402 16.0527 11.8674 16 12 16H12.5V16.5ZM6.5 10C6.50001 9.49138 6.69379 9.00188 7.04193 8.63108C7.39006 8.26028 7.86639 8.03604 8.374 8.004C8.25 8.234 8.187 8.514 8.235 8.837C8.306 9.319 8.613 9.82 9.146 10.353L10.053 11.26C9.79262 11.5809 9.43925 11.8132 9.04146 11.9251C8.64367 12.0369 8.22099 12.0229 7.83153 11.8847C7.44207 11.7466 7.10495 11.4913 6.86652 11.1538C6.62809 10.8163 6.50005 10.4132 6.5 10ZM5.5 3V3.5C5.5 3.63261 5.44732 3.75979 5.35355 3.85355C5.25979 3.94732 5.13261 4 5 4H4.5V3.5C4.5 3.36739 4.55268 3.24021 4.64645 3.14645C4.74021 3.05268 4.86739 3 5 3H5.5ZM4.5 16H5C5.13261 16 5.25979 16.0527 5.35355 16.1464C5.44732 16.2402 5.5 16.3674 5.5 16.5V17H5C4.86739 17 4.74021 16.9473 4.64645 16.8536C4.55268 16.7598 4.5 16.6326 4.5 16.5V16ZM12.5 4H12C11.8674 4 11.7402 3.94732 11.6464 3.85355C11.5527 3.75979 11.5 3.63261 11.5 3.5V3H12C12.1326 3 12.2598 3.05268 12.3536 3.14645C12.4473 3.24021 12.5 3.36739 12.5 3.5V4Z" fill="#2F5B84"/>
</svg>
